<?xml version="1.0" encoding="UTF-8"?>
<svg width="50px" height="50px" viewBox="0 0 50 50" version="1.1" xmlns="http://www.w3.org/2000/svg" xmlns:xlink="http://www.w3.org/1999/xlink">
    <title>Group 3</title>
    <g id="Page-1" stroke="none" stroke-width="1" fill="none" fill-rule="evenodd">
        <g id="Onboard" transform="translate(-48.000000, -525.000000)">
            <g id="Group-3" transform="translate(48.000000, 525.000000)">
                <path d="M3,0 L47,0 C48.6568542,-3.04359188e-16 50,1.34314575 50,3 L50,47 C50,48.6568542 48.6568542,50 47,50 L3,50 C1.34314575,50 2.02906125e-16,48.6568542 0,47 L0,3 C-2.02906125e-16,1.34314575 1.34314575,3.04359188e-16 3,0 Z" id="Mask" fill="#283B68"></path>
                <g id="logo-fb-simple" transform="translate(20.000000, 17.000000)" fill="#FFFFFF" fill-rule="nonzero">
                    <path d="M3.02293,16 L3,9 L0,9 L0,6 L3,6 L3,4 C3,1.3008 4.67151,0 7.07938,0 C8.23277,0 9.22406,0.08587 9.51294,0.12425 L9.51294,2.94507 L7.84296,2.94583 C6.53343,2.94583 6.27987,3.5681 6.27987,4.48124 L6.27987,6 L10,6 L9,9 L6.27986,9 L6.27986,16 L3.02293,16 Z" id="Shape"></path>
                </g>
            </g>
        </g>
    </g>
</svg>